<mxfile host="app.diagrams.net" modified="2023-11-01T14:37:37.656Z" agent="Mozilla/5.0 (Windows NT 10.0; Win64; x64) AppleWebKit/537.36 (KHTML, like Gecko) Chrome/118.0.0.0 Safari/537.36" etag="EVpIALVXz4E6rOXRImG_" version="22.0.8" type="device">
  <diagram name="PÃ¡gina-1" id="6gCN4_wPPUvXj2OItCq5">
    <mxGraphModel dx="5250" dy="2935" grid="1" gridSize="10" guides="1" tooltips="1" connect="1" arrows="1" fold="1" page="1" pageScale="1" pageWidth="827" pageHeight="1169" math="0" shadow="0">
      <root>
        <mxCell id="0" />
        <mxCell id="1" parent="0" />
        <mxCell id="HoYlZ3wIwVS6wh2TnFhM-11" value="&lt;p style=&quot;line-height: 100%;&quot;&gt;&amp;lt;&amp;lt;component&amp;gt;&amp;gt;&lt;/p&gt;&lt;p style=&quot;line-height: 100%;&quot;&gt;&lt;span style=&quot;font-size: 15px;&quot;&gt;CriarSalaController&lt;/span&gt;&lt;/p&gt;" style="shape=umlLifeline;perimeter=lifelinePerimeter;whiteSpace=wrap;html=1;container=1;dropTarget=0;collapsible=0;recursiveResize=0;outlineConnect=0;portConstraint=eastwest;newEdgeStyle={&quot;curved&quot;:0,&quot;rounded&quot;:0};size=90;" parent="1" vertex="1">
          <mxGeometry x="570.63" y="20" width="168.75" height="1300" as="geometry" />
        </mxCell>
        <mxCell id="HoYlZ3wIwVS6wh2TnFhM-6" value="&lt;p style=&quot;line-height: 100%;&quot;&gt;&amp;lt;&amp;lt;component&amp;gt;&amp;gt;&lt;/p&gt;&lt;p style=&quot;line-height: 100%;&quot;&gt;&lt;span style=&quot;font-size: 15px;&quot;&gt;RouteSala&lt;/span&gt;&lt;/p&gt;" style="shape=umlLifeline;perimeter=lifelinePerimeter;whiteSpace=wrap;html=1;container=1;dropTarget=0;collapsible=0;recursiveResize=0;outlineConnect=0;portConstraint=eastwest;newEdgeStyle={&quot;curved&quot;:0,&quot;rounded&quot;:0};size=90;" parent="1" vertex="1">
          <mxGeometry x="332.5" y="20" width="125" height="1280" as="geometry" />
        </mxCell>
        <mxCell id="HoYlZ3wIwVS6wh2TnFhM-2" value="" style="html=1;points=[[0,0,0,0,5],[0,1,0,0,-5],[1,0,0,0,5],[1,1,0,0,-5]];perimeter=orthogonalPerimeter;outlineConnect=0;targetShapes=umlLifeline;portConstraint=eastwest;newEdgeStyle={&quot;curved&quot;:0,&quot;rounded&quot;:0};" parent="1" vertex="1">
          <mxGeometry x="390" y="150" width="10" height="1050" as="geometry" />
        </mxCell>
        <mxCell id="HoYlZ3wIwVS6wh2TnFhM-8" value="" style="html=1;points=[[0,0,0,0,5],[0,1,0,0,-5],[1,0,0,0,5],[1,1,0,0,-5]];perimeter=orthogonalPerimeter;outlineConnect=0;targetShapes=umlLifeline;portConstraint=eastwest;newEdgeStyle={&quot;curved&quot;:0,&quot;rounded&quot;:0};" parent="1" vertex="1">
          <mxGeometry x="650" y="190" width="10" height="940" as="geometry" />
        </mxCell>
        <mxCell id="HoYlZ3wIwVS6wh2TnFhM-12" value="&lt;p style=&quot;line-height: 100%;&quot;&gt;&amp;lt;&amp;lt;component&amp;gt;&amp;gt;&lt;br&gt;&lt;/p&gt;&lt;p style=&quot;line-height: 100%;&quot;&gt;&lt;span style=&quot;font-size: 15px;&quot;&gt;CriarSalaService&lt;/span&gt;&lt;/p&gt;" style="shape=umlLifeline;perimeter=lifelinePerimeter;whiteSpace=wrap;html=1;container=1;dropTarget=0;collapsible=0;recursiveResize=0;outlineConnect=0;portConstraint=eastwest;newEdgeStyle={&quot;curved&quot;:0,&quot;rounded&quot;:0};size=90;" parent="1" vertex="1">
          <mxGeometry x="966.25" y="20" width="152.5" height="1260" as="geometry" />
        </mxCell>
        <mxCell id="HoYlZ3wIwVS6wh2TnFhM-13" value="&lt;p style=&quot;line-height: 100%;&quot;&gt;&amp;lt;&amp;lt;component&amp;gt;&amp;gt;&lt;br&gt;&lt;/p&gt;&lt;p style=&quot;line-height: 100%;&quot;&gt;&lt;span style=&quot;font-size: 15px;&quot;&gt;SalaDTO&lt;/span&gt;&lt;/p&gt;" style="shape=umlLifeline;perimeter=lifelinePerimeter;whiteSpace=wrap;html=1;container=1;dropTarget=0;collapsible=0;recursiveResize=0;outlineConnect=0;portConstraint=eastwest;newEdgeStyle={&quot;curved&quot;:0,&quot;rounded&quot;:0};size=100;" parent="1" vertex="1">
          <mxGeometry x="820" y="180" width="140" height="1100" as="geometry" />
        </mxCell>
        <mxCell id="HoYlZ3wIwVS6wh2TnFhM-14" value="&lt;p style=&quot;line-height: 100%;&quot;&gt;&amp;lt;&amp;lt;component&amp;gt;&amp;gt;&lt;br&gt;&lt;/p&gt;&lt;p style=&quot;line-height: 100%;&quot;&gt;&lt;span style=&quot;font-size: 15px;&quot;&gt;PontoRepo&lt;/span&gt;&lt;/p&gt;" style="shape=umlLifeline;perimeter=lifelinePerimeter;whiteSpace=wrap;html=1;container=1;dropTarget=0;collapsible=0;recursiveResize=0;outlineConnect=0;portConstraint=eastwest;newEdgeStyle={&quot;curved&quot;:0,&quot;rounded&quot;:0};size=90;" parent="1" vertex="1">
          <mxGeometry x="1950" y="19" width="150" height="1280" as="geometry" />
        </mxCell>
        <mxCell id="HoYlZ3wIwVS6wh2TnFhM-32" value="" style="html=1;points=[[0,0,0,0,5],[0,1,0,0,-5],[1,0,0,0,5],[1,1,0,0,-5]];perimeter=orthogonalPerimeter;outlineConnect=0;targetShapes=umlLifeline;portConstraint=eastwest;newEdgeStyle={&quot;curved&quot;:0,&quot;rounded&quot;:0};" parent="HoYlZ3wIwVS6wh2TnFhM-14" vertex="1">
          <mxGeometry x="70" y="841" width="10" height="89" as="geometry" />
        </mxCell>
        <mxCell id="HoYlZ3wIwVS6wh2TnFhM-15" value="&lt;p style=&quot;line-height: 100%;&quot;&gt;&amp;lt;&amp;lt;component&amp;gt;&amp;gt;&lt;br&gt;&lt;/p&gt;&lt;p style=&quot;line-height: 100%;&quot;&gt;Sala&lt;/p&gt;" style="shape=umlLifeline;perimeter=lifelinePerimeter;whiteSpace=wrap;html=1;container=1;dropTarget=0;collapsible=0;recursiveResize=0;outlineConnect=0;portConstraint=eastwest;newEdgeStyle={&quot;curved&quot;:0,&quot;rounded&quot;:0};size=90;" parent="1" vertex="1">
          <mxGeometry x="1610" y="640" width="125" height="650" as="geometry" />
        </mxCell>
        <mxCell id="HoYlZ3wIwVS6wh2TnFhM-17" value="&lt;p style=&quot;line-height: 100%;&quot;&gt;&amp;lt;&amp;lt;component&amp;gt;&amp;gt;&lt;br&gt;&lt;/p&gt;&lt;p style=&quot;line-height: 100%;&quot;&gt;&lt;span style=&quot;font-size: 15px;&quot;&gt;Persistence&lt;/span&gt;&lt;/p&gt;" style="shape=umlLifeline;perimeter=lifelinePerimeter;whiteSpace=wrap;html=1;container=1;dropTarget=0;collapsible=0;recursiveResize=0;outlineConnect=0;portConstraint=eastwest;newEdgeStyle={&quot;curved&quot;:0,&quot;rounded&quot;:0};size=90;" parent="1" vertex="1">
          <mxGeometry x="2401.25" y="25" width="117.5" height="1265" as="geometry" />
        </mxCell>
        <mxCell id="HoYlZ3wIwVS6wh2TnFhM-18" value="criarSala(json)" style="html=1;verticalAlign=bottom;endArrow=block;curved=0;rounded=0;entryX=0;entryY=0;entryDx=0;entryDy=5;entryPerimeter=0;" parent="1" source="HoYlZ3wIwVS6wh2TnFhM-2" target="HoYlZ3wIwVS6wh2TnFhM-8" edge="1">
          <mxGeometry width="80" relative="1" as="geometry">
            <mxPoint x="337.5" y="200" as="sourcePoint" />
            <mxPoint x="617.5" y="200" as="targetPoint" />
          </mxGeometry>
        </mxCell>
        <mxCell id="HoYlZ3wIwVS6wh2TnFhM-19" value="criarSalaToDTO(json)" style="html=1;verticalAlign=bottom;endArrow=block;curved=0;rounded=0;" parent="1" source="HoYlZ3wIwVS6wh2TnFhM-8" edge="1">
          <mxGeometry width="80" relative="1" as="geometry">
            <mxPoint x="670" y="230.0000000000001" as="sourcePoint" />
            <mxPoint x="820" y="230" as="targetPoint" />
          </mxGeometry>
        </mxCell>
        <mxCell id="HoYlZ3wIwVS6wh2TnFhM-21" value="" style="html=1;points=[[0,0,0,0,5],[0,1,0,0,-5],[1,0,0,0,5],[1,1,0,0,-5]];perimeter=orthogonalPerimeter;outlineConnect=0;targetShapes=umlLifeline;portConstraint=eastwest;newEdgeStyle={&quot;curved&quot;:0,&quot;rounded&quot;:0};" parent="1" vertex="1">
          <mxGeometry x="1037.5" y="310" width="10" height="760" as="geometry" />
        </mxCell>
        <mxCell id="HoYlZ3wIwVS6wh2TnFhM-24" value="criarSala(dto: SalaDTO)" style="html=1;verticalAlign=bottom;endArrow=block;curved=0;rounded=0;" parent="1" target="HoYlZ3wIwVS6wh2TnFhM-21" edge="1">
          <mxGeometry width="80" relative="1" as="geometry">
            <mxPoint x="660" y="321.0000000000001" as="sourcePoint" />
            <mxPoint x="865" y="320" as="targetPoint" />
          </mxGeometry>
        </mxCell>
        <mxCell id="HoYlZ3wIwVS6wh2TnFhM-26" value="criarSala(dto: SalaDTO)" style="html=1;verticalAlign=bottom;endArrow=block;curved=0;rounded=0;entryX=0;entryY=0.091;entryDx=0;entryDy=0;entryPerimeter=0;" parent="1" edge="1">
          <mxGeometry x="-0.0035" width="80" relative="1" as="geometry">
            <mxPoint x="1047.5" y="690.0000000000001" as="sourcePoint" />
            <mxPoint x="1610" y="690.0000000000001" as="targetPoint" />
            <mxPoint as="offset" />
          </mxGeometry>
        </mxCell>
        <mxCell id="HoYlZ3wIwVS6wh2TnFhM-28" value="return" style="html=1;verticalAlign=bottom;endArrow=open;dashed=1;endSize=8;curved=0;rounded=0;" parent="1" edge="1">
          <mxGeometry relative="1" as="geometry">
            <mxPoint x="1200.0000000000002" y="414" as="sourcePoint" />
            <mxPoint x="1047.5000000000002" y="414" as="targetPoint" />
          </mxGeometry>
        </mxCell>
        <mxCell id="HoYlZ3wIwVS6wh2TnFhM-31" value="save(pontos: Ponto)" style="html=1;verticalAlign=bottom;endArrow=block;curved=0;rounded=0;" parent="1" edge="1">
          <mxGeometry x="-0.0035" width="80" relative="1" as="geometry">
            <mxPoint x="1047.5" y="873.29" as="sourcePoint" />
            <mxPoint x="2020" y="873" as="targetPoint" />
            <mxPoint as="offset" />
          </mxGeometry>
        </mxCell>
        <mxCell id="HoYlZ3wIwVS6wh2TnFhM-36" value="save(model: PontoDataModel)" style="html=1;verticalAlign=bottom;endArrow=block;curved=0;rounded=0;" parent="1" edge="1" target="HoYlZ3wIwVS6wh2TnFhM-17">
          <mxGeometry x="-0.0035" width="80" relative="1" as="geometry">
            <mxPoint x="2030" y="910" as="sourcePoint" />
            <mxPoint x="2290" y="910" as="targetPoint" />
            <mxPoint as="offset" />
          </mxGeometry>
        </mxCell>
        <mxCell id="HoYlZ3wIwVS6wh2TnFhM-43" value="POST(json)" style="html=1;verticalAlign=bottom;startArrow=oval;startFill=1;endArrow=block;startSize=8;curved=0;rounded=0;" parent="1" edge="1">
          <mxGeometry x="-0.0026" width="60" relative="1" as="geometry">
            <mxPoint x="280" y="160" as="sourcePoint" />
            <mxPoint x="390" y="160" as="targetPoint" />
            <mxPoint as="offset" />
          </mxGeometry>
        </mxCell>
        <mxCell id="HoYlZ3wIwVS6wh2TnFhM-45" value="" style="ellipse;html=1;" parent="1" vertex="1">
          <mxGeometry x="275" y="1090" width="10" height="10" as="geometry" />
        </mxCell>
        <mxCell id="RrsXUyBzXxaotz3mh_7W-5" value="&lt;p style=&quot;line-height: 100%;&quot;&gt;&amp;lt;&amp;lt;component&amp;gt;&amp;gt;&lt;br&gt;&lt;/p&gt;&lt;p style=&quot;line-height: 100%;&quot;&gt;&lt;span style=&quot;font-size: 15px;&quot;&gt;EdificioRepo&lt;/span&gt;&lt;/p&gt;" style="shape=umlLifeline;perimeter=lifelinePerimeter;whiteSpace=wrap;html=1;container=1;dropTarget=0;collapsible=0;recursiveResize=0;outlineConnect=0;portConstraint=eastwest;newEdgeStyle={&quot;curved&quot;:0,&quot;rounded&quot;:0};size=90;" parent="1" vertex="1">
          <mxGeometry x="1142.5" y="20" width="125" height="1260" as="geometry" />
        </mxCell>
        <mxCell id="RrsXUyBzXxaotz3mh_7W-6" value="&lt;p style=&quot;line-height: 100%;&quot;&gt;&amp;lt;&amp;lt;component&amp;gt;&amp;gt;&lt;br&gt;&lt;/p&gt;&lt;p style=&quot;line-height: 100%;&quot;&gt;&lt;span style=&quot;font-size: 15px;&quot;&gt;Edificio&lt;/span&gt;&lt;/p&gt;" style="shape=umlLifeline;perimeter=lifelinePerimeter;whiteSpace=wrap;html=1;container=1;dropTarget=0;collapsible=0;recursiveResize=0;outlineConnect=0;portConstraint=eastwest;newEdgeStyle={&quot;curved&quot;:0,&quot;rounded&quot;:0};size=90;" parent="1" vertex="1">
          <mxGeometry x="1292.5" y="20" width="125" height="1260" as="geometry" />
        </mxCell>
        <mxCell id="RrsXUyBzXxaotz3mh_7W-8" value="" style="html=1;points=[[0,0,0,0,5],[0,1,0,0,-5],[1,0,0,0,5],[1,1,0,0,-5]];perimeter=orthogonalPerimeter;outlineConnect=0;targetShapes=umlLifeline;portConstraint=eastwest;newEdgeStyle={&quot;curved&quot;:0,&quot;rounded&quot;:0};" parent="RrsXUyBzXxaotz3mh_7W-6" vertex="1">
          <mxGeometry x="57.5" y="420" width="10" height="80" as="geometry" />
        </mxCell>
        <mxCell id="HoYlZ3wIwVS6wh2TnFhM-34" value="" style="html=1;points=[[0,0,0,0,5],[0,1,0,0,-5],[1,0,0,0,5],[1,1,0,0,-5]];perimeter=orthogonalPerimeter;outlineConnect=0;targetShapes=umlLifeline;portConstraint=eastwest;newEdgeStyle={&quot;curved&quot;:0,&quot;rounded&quot;:0};" parent="1" vertex="1">
          <mxGeometry x="1200" y="340" width="10" height="80" as="geometry" />
        </mxCell>
        <mxCell id="RrsXUyBzXxaotz3mh_7W-7" value="findEdificio(codigo: String)" style="html=1;verticalAlign=bottom;endArrow=block;curved=0;rounded=0;" parent="1" target="HoYlZ3wIwVS6wh2TnFhM-34" edge="1">
          <mxGeometry x="-0.0035" width="80" relative="1" as="geometry">
            <mxPoint x="1047.5" y="349.33" as="sourcePoint" />
            <mxPoint x="1210" y="349" as="targetPoint" />
            <mxPoint as="offset" />
          </mxGeometry>
        </mxCell>
        <mxCell id="RrsXUyBzXxaotz3mh_7W-10" value="return&amp;nbsp;" style="html=1;verticalAlign=bottom;endArrow=open;dashed=1;endSize=8;curved=0;rounded=0;" parent="1" edge="1">
          <mxGeometry relative="1" as="geometry">
            <mxPoint x="1350" y="514" as="sourcePoint" />
            <mxPoint x="1050" y="514" as="targetPoint" />
          </mxGeometry>
        </mxCell>
        <mxCell id="RrsXUyBzXxaotz3mh_7W-11" value="findPiso(numeroPiso: number)" style="html=1;verticalAlign=bottom;endArrow=block;curved=0;rounded=0;" parent="1" source="HoYlZ3wIwVS6wh2TnFhM-21" edge="1">
          <mxGeometry x="-0.0035" width="80" relative="1" as="geometry">
            <mxPoint x="1009.9999999999998" y="450" as="sourcePoint" />
            <mxPoint x="1350" y="450" as="targetPoint" />
            <mxPoint as="offset" />
          </mxGeometry>
        </mxCell>
        <mxCell id="RrsXUyBzXxaotz3mh_7W-14" value="&lt;p style=&quot;line-height: 100%;&quot;&gt;&amp;lt;&amp;lt;component&amp;gt;&amp;gt;&lt;br&gt;&lt;/p&gt;&lt;p style=&quot;line-height: 100%;&quot;&gt;&lt;span style=&quot;font-size: 15px;&quot;&gt;Piso&lt;/span&gt;&lt;/p&gt;" style="shape=umlLifeline;perimeter=lifelinePerimeter;whiteSpace=wrap;html=1;container=1;dropTarget=0;collapsible=0;recursiveResize=0;outlineConnect=0;portConstraint=eastwest;newEdgeStyle={&quot;curved&quot;:0,&quot;rounded&quot;:0};size=90;" parent="1" vertex="1">
          <mxGeometry x="1454" y="20" width="125" height="1270" as="geometry" />
        </mxCell>
        <mxCell id="RrsXUyBzXxaotz3mh_7W-15" value="" style="html=1;points=[[0,0,0,0,5],[0,1,0,0,-5],[1,0,0,0,5],[1,1,0,0,-5]];perimeter=orthogonalPerimeter;outlineConnect=0;targetShapes=umlLifeline;portConstraint=eastwest;newEdgeStyle={&quot;curved&quot;:0,&quot;rounded&quot;:0};" parent="1" vertex="1">
          <mxGeometry x="1511.5" y="560" width="10" height="80" as="geometry" />
        </mxCell>
        <mxCell id="RrsXUyBzXxaotz3mh_7W-16" value="validateSalaExistence(pontos: Ponto[])" style="html=1;verticalAlign=bottom;endArrow=block;curved=0;rounded=0;" parent="1" source="HoYlZ3wIwVS6wh2TnFhM-21" edge="1">
          <mxGeometry x="0.0022" width="80" relative="1" as="geometry">
            <mxPoint x="1209.5" y="570" as="sourcePoint" />
            <mxPoint x="1511.5" y="570" as="targetPoint" />
            <mxPoint as="offset" />
          </mxGeometry>
        </mxCell>
        <mxCell id="RrsXUyBzXxaotz3mh_7W-17" value="return false" style="html=1;verticalAlign=bottom;endArrow=open;dashed=1;endSize=8;curved=0;rounded=0;" parent="1" edge="1">
          <mxGeometry relative="1" as="geometry">
            <mxPoint x="1511.5" y="634" as="sourcePoint" />
            <mxPoint x="1047.5" y="634" as="targetPoint" />
          </mxGeometry>
        </mxCell>
        <mxCell id="hVTGvECh5Qzpq4Tu6uaV-1" value="&lt;p style=&quot;line-height: 100%;&quot;&gt;&amp;lt;&amp;lt;component&amp;gt;&amp;gt;&lt;br&gt;&lt;/p&gt;&lt;p style=&quot;line-height: 100%;&quot;&gt;&lt;span style=&quot;font-size: 15px;&quot;&gt;Persistence&lt;/span&gt;&lt;/p&gt;" style="shape=umlLifeline;perimeter=lifelinePerimeter;whiteSpace=wrap;html=1;container=1;dropTarget=0;collapsible=0;recursiveResize=0;outlineConnect=0;portConstraint=eastwest;newEdgeStyle={&quot;curved&quot;:0,&quot;rounded&quot;:0};size=90;" parent="1" vertex="1">
          <mxGeometry x="2390" y="1271" width="140" height="90" as="geometry" />
        </mxCell>
        <mxCell id="hVTGvECh5Qzpq4Tu6uaV-2" value="&lt;p style=&quot;line-height: 100%;&quot;&gt;&amp;lt;&amp;lt;component&amp;gt;&amp;gt;&lt;br&gt;&lt;/p&gt;&lt;p style=&quot;line-height: 100%;&quot;&gt;&lt;span style=&quot;font-size: 15px;&quot;&gt;PontoRepo&lt;/span&gt;&lt;/p&gt;" style="shape=umlLifeline;perimeter=lifelinePerimeter;whiteSpace=wrap;html=1;container=1;dropTarget=0;collapsible=0;recursiveResize=0;outlineConnect=0;portConstraint=eastwest;newEdgeStyle={&quot;curved&quot;:0,&quot;rounded&quot;:0};size=90;" parent="1" vertex="1">
          <mxGeometry x="1950" y="1270" width="150" height="90" as="geometry" />
        </mxCell>
        <mxCell id="hVTGvECh5Qzpq4Tu6uaV-4" value="&lt;p style=&quot;line-height: 100%;&quot;&gt;&amp;lt;&amp;lt;component&amp;gt;&amp;gt;&lt;br&gt;&lt;/p&gt;&lt;p style=&quot;line-height: 100%;&quot;&gt;&lt;span style=&quot;font-size: 15px;&quot;&gt;Sala&lt;/span&gt;&lt;/p&gt;" style="shape=umlLifeline;perimeter=lifelinePerimeter;whiteSpace=wrap;html=1;container=1;dropTarget=0;collapsible=0;recursiveResize=0;outlineConnect=0;portConstraint=eastwest;newEdgeStyle={&quot;curved&quot;:0,&quot;rounded&quot;:0};size=90;" parent="1" vertex="1">
          <mxGeometry x="1610" y="1271" width="125" height="90" as="geometry" />
        </mxCell>
        <mxCell id="hVTGvECh5Qzpq4Tu6uaV-5" value="" style="html=1;verticalAlign=bottom;labelBackgroundColor=none;endArrow=block;endFill=1;dashed=1;rounded=0;" parent="1" edge="1">
          <mxGeometry width="160" relative="1" as="geometry">
            <mxPoint x="1037.5" y="1060" as="sourcePoint" />
            <mxPoint x="660" y="1060" as="targetPoint" />
          </mxGeometry>
        </mxCell>
        <mxCell id="hVTGvECh5Qzpq4Tu6uaV-6" value="&lt;p style=&quot;line-height: 100%;&quot;&gt;&amp;lt;&amp;lt;component&amp;gt;&amp;gt;&lt;br&gt;&lt;/p&gt;&lt;p style=&quot;line-height: 100%;&quot;&gt;&lt;span style=&quot;font-size: 15px;&quot;&gt;Piso&lt;/span&gt;&lt;/p&gt;" style="shape=umlLifeline;perimeter=lifelinePerimeter;whiteSpace=wrap;html=1;container=1;dropTarget=0;collapsible=0;recursiveResize=0;outlineConnect=0;portConstraint=eastwest;newEdgeStyle={&quot;curved&quot;:0,&quot;rounded&quot;:0};size=90;" parent="1" vertex="1">
          <mxGeometry x="1454" y="1271" width="125" height="90" as="geometry" />
        </mxCell>
        <mxCell id="hVTGvECh5Qzpq4Tu6uaV-9" value="&lt;p style=&quot;line-height: 100%;&quot;&gt;&amp;lt;&amp;lt;component&amp;gt;&amp;gt;&lt;br&gt;&lt;/p&gt;&lt;p style=&quot;line-height: 100%;&quot;&gt;&lt;span style=&quot;font-size: 15px;&quot;&gt;Edificio&lt;/span&gt;&lt;/p&gt;" style="shape=umlLifeline;perimeter=lifelinePerimeter;whiteSpace=wrap;html=1;container=1;dropTarget=0;collapsible=0;recursiveResize=0;outlineConnect=0;portConstraint=eastwest;newEdgeStyle={&quot;curved&quot;:0,&quot;rounded&quot;:0};size=90;" parent="1" vertex="1">
          <mxGeometry x="1292.5" y="1271" width="125" height="89" as="geometry" />
        </mxCell>
        <mxCell id="hVTGvECh5Qzpq4Tu6uaV-11" value="" style="html=1;verticalAlign=bottom;labelBackgroundColor=none;endArrow=block;endFill=1;dashed=1;rounded=0;exitX=0;exitY=1;exitDx=0;exitDy=-5;exitPerimeter=0;" parent="1" edge="1">
          <mxGeometry width="160" relative="1" as="geometry">
            <mxPoint x="650" y="1069" as="sourcePoint" />
            <mxPoint x="400" y="1068" as="targetPoint" />
          </mxGeometry>
        </mxCell>
        <mxCell id="hVTGvECh5Qzpq4Tu6uaV-13" value="" style="html=1;verticalAlign=bottom;labelBackgroundColor=none;endArrow=block;endFill=1;dashed=1;rounded=0;" parent="1" edge="1">
          <mxGeometry width="160" relative="1" as="geometry">
            <mxPoint x="2018.5" y="940" as="sourcePoint" />
            <mxPoint x="1050" y="940" as="targetPoint" />
          </mxGeometry>
        </mxCell>
        <mxCell id="hVTGvECh5Qzpq4Tu6uaV-14" value="sucess" style="text;html=1;align=center;verticalAlign=middle;resizable=0;points=[];autosize=1;strokeColor=none;fillColor=none;" parent="1" vertex="1">
          <mxGeometry x="1412.5" y="940" width="60" height="30" as="geometry" />
        </mxCell>
        <mxCell id="hVTGvECh5Qzpq4Tu6uaV-17" value="return" style="text;html=1;align=center;verticalAlign=middle;resizable=0;points=[];autosize=1;strokeColor=none;fillColor=none;" parent="1" vertex="1">
          <mxGeometry x="827" y="1020" width="50" height="30" as="geometry" />
        </mxCell>
        <mxCell id="hVTGvECh5Qzpq4Tu6uaV-20" value="return" style="text;html=1;align=center;verticalAlign=middle;resizable=0;points=[];autosize=1;strokeColor=none;fillColor=none;" parent="1" vertex="1">
          <mxGeometry x="490" y="1000" width="50" height="30" as="geometry" />
        </mxCell>
        <mxCell id="hVTGvECh5Qzpq4Tu6uaV-23" value="&lt;p style=&quot;line-height: 100%;&quot;&gt;&amp;lt;&amp;lt;component&amp;gt;&amp;gt;&lt;br&gt;&lt;/p&gt;&lt;p style=&quot;line-height: 100%;&quot;&gt;&lt;span style=&quot;font-size: 15px;&quot;&gt;EdificioRepo&lt;/span&gt;&lt;/p&gt;" style="shape=umlLifeline;perimeter=lifelinePerimeter;whiteSpace=wrap;html=1;container=1;dropTarget=0;collapsible=0;recursiveResize=0;outlineConnect=0;portConstraint=eastwest;newEdgeStyle={&quot;curved&quot;:0,&quot;rounded&quot;:0};size=90;" parent="1" vertex="1">
          <mxGeometry x="1142.5" y="1270" width="125" height="90" as="geometry" />
        </mxCell>
        <mxCell id="hVTGvECh5Qzpq4Tu6uaV-24" value="&lt;p style=&quot;line-height: 100%;&quot;&gt;&amp;lt;&amp;lt;component&amp;gt;&amp;gt;&lt;br&gt;&lt;/p&gt;&lt;p style=&quot;line-height: 100%;&quot;&gt;&lt;span style=&quot;font-size: 15px;&quot;&gt;CriarSalaService&lt;/span&gt;&lt;/p&gt;" style="shape=umlLifeline;perimeter=lifelinePerimeter;whiteSpace=wrap;html=1;container=1;dropTarget=0;collapsible=0;recursiveResize=0;outlineConnect=0;portConstraint=eastwest;newEdgeStyle={&quot;curved&quot;:0,&quot;rounded&quot;:0};size=90;" parent="1" vertex="1">
          <mxGeometry x="967.5" y="1270.5" width="150" height="90" as="geometry" />
        </mxCell>
        <mxCell id="hVTGvECh5Qzpq4Tu6uaV-25" value="&lt;p style=&quot;border-color: var(--border-color); line-height: 12px;&quot;&gt;&amp;lt;&amp;lt;component&amp;gt;&amp;gt;&lt;br style=&quot;border-color: var(--border-color);&quot;&gt;&lt;/p&gt;&lt;p style=&quot;line-height: 100%;&quot;&gt;&lt;span style=&quot;font-size: 15px; background-color: initial;&quot;&gt;SalaDTO&lt;/span&gt;&lt;br&gt;&lt;/p&gt;" style="shape=umlLifeline;perimeter=lifelinePerimeter;whiteSpace=wrap;html=1;container=1;dropTarget=0;collapsible=0;recursiveResize=0;outlineConnect=0;portConstraint=eastwest;newEdgeStyle={&quot;curved&quot;:0,&quot;rounded&quot;:0};size=100;" parent="1" vertex="1">
          <mxGeometry x="820" y="1270" width="140" height="90" as="geometry" />
        </mxCell>
        <mxCell id="hVTGvECh5Qzpq4Tu6uaV-26" value="&lt;p style=&quot;line-height: 100%;&quot;&gt;&amp;lt;&amp;lt;component&amp;gt;&amp;gt;&lt;/p&gt;&lt;p style=&quot;line-height: 100%;&quot;&gt;&lt;span style=&quot;font-size: 15px;&quot;&gt;CriarSalaController&lt;/span&gt;&lt;/p&gt;" style="shape=umlLifeline;perimeter=lifelinePerimeter;whiteSpace=wrap;html=1;container=1;dropTarget=0;collapsible=0;recursiveResize=0;outlineConnect=0;portConstraint=eastwest;newEdgeStyle={&quot;curved&quot;:0,&quot;rounded&quot;:0};size=90;" parent="1" vertex="1">
          <mxGeometry x="570.62" y="1270" width="168.75" height="90" as="geometry" />
        </mxCell>
        <mxCell id="hVTGvECh5Qzpq4Tu6uaV-27" value="&lt;p style=&quot;line-height: 100%;&quot;&gt;&amp;lt;&amp;lt;component&amp;gt;&amp;gt;&lt;/p&gt;&lt;p style=&quot;line-height: 100%;&quot;&gt;&lt;span style=&quot;font-size: 15px;&quot;&gt;RouteSala&lt;/span&gt;&lt;/p&gt;" style="shape=umlLifeline;perimeter=lifelinePerimeter;whiteSpace=wrap;html=1;container=1;dropTarget=0;collapsible=0;recursiveResize=0;outlineConnect=0;portConstraint=eastwest;newEdgeStyle={&quot;curved&quot;:0,&quot;rounded&quot;:0};size=90;" parent="1" vertex="1">
          <mxGeometry x="332.5" y="1271" width="125" height="89" as="geometry" />
        </mxCell>
        <mxCell id="hVTGvECh5Qzpq4Tu6uaV-31" value="alt" style="shape=umlFrame;whiteSpace=wrap;html=1;pointerEvents=0;recursiveResize=0;container=1;collapsible=0;width=100;height=20;" parent="1" vertex="1">
          <mxGeometry x="200" y="1080" width="300" height="140" as="geometry" />
        </mxCell>
        <mxCell id="hVTGvECh5Qzpq4Tu6uaV-33" value="" style="line;strokeWidth=1;dashed=1;labelPosition=center;verticalLabelPosition=bottom;align=left;verticalAlign=top;spacingLeft=20;spacingTop=15;html=1;whiteSpace=wrap;" parent="hVTGvECh5Qzpq4Tu6uaV-31" vertex="1">
          <mxGeometry y="70" width="300" height="10" as="geometry" />
        </mxCell>
        <mxCell id="hVTGvECh5Qzpq4Tu6uaV-39" value="400&amp;nbsp;Bad Request" style="text;html=1;align=center;verticalAlign=middle;resizable=0;points=[];autosize=1;strokeColor=none;fillColor=none;" parent="hVTGvECh5Qzpq4Tu6uaV-31" vertex="1">
          <mxGeometry x="84" y="90" width="120" height="30" as="geometry" />
        </mxCell>
        <mxCell id="hVTGvECh5Qzpq4Tu6uaV-38" value="" style="html=1;verticalAlign=bottom;labelBackgroundColor=none;endArrow=block;endFill=1;dashed=1;rounded=0;entryX=1;entryY=0.5;entryDx=0;entryDy=0;" parent="hVTGvECh5Qzpq4Tu6uaV-31" target="hVTGvECh5Qzpq4Tu6uaV-37" edge="1">
          <mxGeometry width="160" relative="1" as="geometry">
            <mxPoint x="189" y="119" as="sourcePoint" />
            <mxPoint x="459" y="159" as="targetPoint" />
            <Array as="points">
              <mxPoint x="119" y="119" />
            </Array>
          </mxGeometry>
        </mxCell>
        <mxCell id="hVTGvECh5Qzpq4Tu6uaV-37" value="" style="ellipse;html=1;" parent="hVTGvECh5Qzpq4Tu6uaV-31" vertex="1">
          <mxGeometry x="76" y="114" width="10" height="10" as="geometry" />
        </mxCell>
        <mxCell id="hVTGvECh5Qzpq4Tu6uaV-22" value="201 Created" style="text;html=1;align=center;verticalAlign=middle;resizable=0;points=[];autosize=1;strokeColor=none;fillColor=none;" parent="hVTGvECh5Qzpq4Tu6uaV-31" vertex="1">
          <mxGeometry x="100" y="3" width="90" height="30" as="geometry" />
        </mxCell>
        <mxCell id="hVTGvECh5Qzpq4Tu6uaV-12" value="" style="html=1;verticalAlign=bottom;labelBackgroundColor=none;endArrow=block;endFill=1;dashed=1;rounded=0;entryX=1;entryY=0.5;entryDx=0;entryDy=0;" parent="hVTGvECh5Qzpq4Tu6uaV-31" edge="1">
          <mxGeometry width="160" relative="1" as="geometry">
            <mxPoint x="191" y="34.41000000000008" as="sourcePoint" />
            <mxPoint x="86" y="34.41000000000008" as="targetPoint" />
          </mxGeometry>
        </mxCell>
        <mxCell id="w1lqRAV6XmwvbHftuM9b-14" value="" style="ellipse;html=1;" vertex="1" parent="hVTGvECh5Qzpq4Tu6uaV-31">
          <mxGeometry x="76" y="30" width="10" height="10" as="geometry" />
        </mxCell>
        <mxCell id="w1lqRAV6XmwvbHftuM9b-1" value="alterarPontoSala(orientacao: string)" style="html=1;verticalAlign=bottom;endArrow=block;curved=0;rounded=0;" edge="1" parent="1" target="w1lqRAV6XmwvbHftuM9b-5">
          <mxGeometry x="-0.0041" width="80" relative="1" as="geometry">
            <mxPoint x="1047.5" y="800" as="sourcePoint" />
            <mxPoint x="1825" y="800" as="targetPoint" />
            <mxPoint as="offset" />
          </mxGeometry>
        </mxCell>
        <mxCell id="w1lqRAV6XmwvbHftuM9b-2" value="&lt;p style=&quot;line-height: 100%;&quot;&gt;&amp;lt;&amp;lt;component&amp;gt;&amp;gt;&lt;br&gt;&lt;/p&gt;&lt;p style=&quot;line-height: 100%;&quot;&gt;Ponto&lt;/p&gt;" style="shape=umlLifeline;perimeter=lifelinePerimeter;whiteSpace=wrap;html=1;container=1;dropTarget=0;collapsible=0;recursiveResize=0;outlineConnect=0;portConstraint=eastwest;newEdgeStyle={&quot;curved&quot;:0,&quot;rounded&quot;:0};size=90;" vertex="1" parent="1">
          <mxGeometry x="1790" y="19" width="125" height="1261" as="geometry" />
        </mxCell>
        <mxCell id="w1lqRAV6XmwvbHftuM9b-5" value="" style="html=1;points=[[0,0,0,0,5],[0,1,0,0,-5],[1,0,0,0,5],[1,1,0,0,-5]];perimeter=orthogonalPerimeter;outlineConnect=0;targetShapes=umlLifeline;portConstraint=eastwest;newEdgeStyle={&quot;curved&quot;:0,&quot;rounded&quot;:0};" vertex="1" parent="w1lqRAV6XmwvbHftuM9b-2">
          <mxGeometry x="57.5" y="771" width="10" height="59" as="geometry" />
        </mxCell>
        <mxCell id="w1lqRAV6XmwvbHftuM9b-3" value="&lt;p style=&quot;line-height: 100%;&quot;&gt;&amp;lt;&amp;lt;component&amp;gt;&amp;gt;&lt;br&gt;&lt;/p&gt;&lt;p style=&quot;line-height: 100%;&quot;&gt;Ponto&lt;/p&gt;" style="shape=umlLifeline;perimeter=lifelinePerimeter;whiteSpace=wrap;html=1;container=1;dropTarget=0;collapsible=0;recursiveResize=0;outlineConnect=0;portConstraint=eastwest;newEdgeStyle={&quot;curved&quot;:0,&quot;rounded&quot;:0};size=90;" vertex="1" parent="1">
          <mxGeometry x="1790" y="1271" width="125" height="89" as="geometry" />
        </mxCell>
        <mxCell id="w1lqRAV6XmwvbHftuM9b-6" value="success" style="html=1;verticalAlign=bottom;endArrow=open;dashed=1;endSize=8;curved=0;rounded=0;exitX=0.25;exitY=0.847;exitDx=0;exitDy=0;exitPerimeter=0;" edge="1" parent="1">
          <mxGeometry relative="1" as="geometry">
            <mxPoint x="1848" y="839.973" as="sourcePoint" />
            <mxPoint x="1050" y="840" as="targetPoint" />
          </mxGeometry>
        </mxCell>
        <mxCell id="w1lqRAV6XmwvbHftuM9b-8" value="&lt;p style=&quot;line-height: 100%;&quot;&gt;&amp;lt;&amp;lt;component&amp;gt;&amp;gt;&lt;br&gt;&lt;/p&gt;&lt;p style=&quot;line-height: 100%;&quot;&gt;&lt;span style=&quot;font-size: 15px;&quot;&gt;SalaRepo&lt;/span&gt;&lt;/p&gt;" style="shape=umlLifeline;perimeter=lifelinePerimeter;whiteSpace=wrap;html=1;container=1;dropTarget=0;collapsible=0;recursiveResize=0;outlineConnect=0;portConstraint=eastwest;newEdgeStyle={&quot;curved&quot;:0,&quot;rounded&quot;:0};size=90;" vertex="1" parent="1">
          <mxGeometry x="2161.25" y="20" width="150" height="1280" as="geometry" />
        </mxCell>
        <mxCell id="w1lqRAV6XmwvbHftuM9b-9" value="" style="html=1;points=[[0,0,0,0,5],[0,1,0,0,-5],[1,0,0,0,5],[1,1,0,0,-5]];perimeter=orthogonalPerimeter;outlineConnect=0;targetShapes=umlLifeline;portConstraint=eastwest;newEdgeStyle={&quot;curved&quot;:0,&quot;rounded&quot;:0};" vertex="1" parent="w1lqRAV6XmwvbHftuM9b-8">
          <mxGeometry x="70" y="967" width="10" height="81" as="geometry" />
        </mxCell>
        <mxCell id="w1lqRAV6XmwvbHftuM9b-10" value="save(sala: Sala)" style="html=1;verticalAlign=bottom;endArrow=block;curved=0;rounded=0;" edge="1" parent="1">
          <mxGeometry x="-0.0035" width="80" relative="1" as="geometry">
            <mxPoint x="1047.5" y="994.04" as="sourcePoint" />
            <mxPoint x="2230" y="994" as="targetPoint" />
            <mxPoint as="offset" />
          </mxGeometry>
        </mxCell>
        <mxCell id="w1lqRAV6XmwvbHftuM9b-11" value="save(model: SalaDataModel)" style="html=1;verticalAlign=bottom;endArrow=block;curved=0;rounded=0;" edge="1" parent="1" target="HoYlZ3wIwVS6wh2TnFhM-17">
          <mxGeometry x="-0.0035" width="80" relative="1" as="geometry">
            <mxPoint x="2245" y="1028.18" as="sourcePoint" />
            <mxPoint x="2460" y="1030" as="targetPoint" />
            <mxPoint as="offset" />
          </mxGeometry>
        </mxCell>
        <mxCell id="w1lqRAV6XmwvbHftuM9b-12" value="" style="html=1;verticalAlign=bottom;labelBackgroundColor=none;endArrow=block;endFill=1;dashed=1;rounded=0;" edge="1" parent="1">
          <mxGeometry width="160" relative="1" as="geometry">
            <mxPoint x="2228.5" y="1050" as="sourcePoint" />
            <mxPoint x="1050" y="1050" as="targetPoint" />
          </mxGeometry>
        </mxCell>
        <mxCell id="w1lqRAV6XmwvbHftuM9b-13" value="succses&lt;br&gt;" style="edgeLabel;html=1;align=center;verticalAlign=middle;resizable=0;points=[];" vertex="1" connectable="0" parent="w1lqRAV6XmwvbHftuM9b-12">
          <mxGeometry x="-0.1164" y="-3" relative="1" as="geometry">
            <mxPoint as="offset" />
          </mxGeometry>
        </mxCell>
        <mxCell id="w1lqRAV6XmwvbHftuM9b-15" value="&lt;p style=&quot;line-height: 100%;&quot;&gt;&amp;lt;&amp;lt;component&amp;gt;&amp;gt;&lt;br&gt;&lt;/p&gt;&lt;p style=&quot;line-height: 100%;&quot;&gt;&lt;span style=&quot;font-size: 15px;&quot;&gt;SalaRepo&lt;/span&gt;&lt;/p&gt;" style="shape=umlLifeline;perimeter=lifelinePerimeter;whiteSpace=wrap;html=1;container=1;dropTarget=0;collapsible=0;recursiveResize=0;outlineConnect=0;portConstraint=eastwest;newEdgeStyle={&quot;curved&quot;:0,&quot;rounded&quot;:0};size=90;" vertex="1" parent="1">
          <mxGeometry x="2161.25" y="1271" width="150" height="89" as="geometry" />
        </mxCell>
      </root>
    </mxGraphModel>
  </diagram>
</mxfile>
